<svg width="30" height="28" viewBox="0 0 30 28" fill="none" xmlns="http://www.w3.org/2000/svg">
<g clip-path="url(#clip0_178_2501)">
<path d="M27.9818 5.18454C27.9562 5.13304 27.9307 5.08154 27.8881 5.0472L27.854 5.01287C27.6582 4.79828 27.3602 4.71244 27.0791 4.78111C26.7981 4.84978 26.5682 5.08154 26.5001 5.3648C26.432 5.61373 26.3042 5.84549 26.1169 6.01716C25.7422 6.36909 25.2143 6.48068 24.7374 6.30901C24.2179 6.12875 23.8688 5.65665 23.7751 5.01287C23.7751 4.97853 23.7751 4.9442 23.7751 4.90986C23.9284 4.22317 24.3457 3.76823 24.9418 3.65665C25.2313 3.60514 25.4697 3.39914 25.5634 3.11587C25.6571 2.8412 25.5889 2.54077 25.3931 2.32617L23.4601 0.231753C23.3494 0.111581 23.2131 0.0343279 23.0598 -6.82287e-06C23.0173 -0.00859051 22.9832 -0.0171742 22.9406 -0.00859051C22.7448 -0.00859051 22.5659 0.0686627 22.4212 0.197418L20.5818 1.88841C20.4797 1.63948 20.3264 1.40772 20.139 1.20171C19.279 0.266088 17.8058 0.197418 16.8521 1.05579C15.9239 1.94849 15.8728 3.39913 16.7414 4.36051C16.9287 4.56652 17.1416 4.72961 17.38 4.85836L15.5577 6.56652C15.5151 6.60944 15.4811 6.65235 15.464 6.66952C15.3704 6.78969 15.3193 6.92703 15.3022 7.07295C15.3022 7.11587 15.3022 7.15879 15.3022 7.19313C15.3278 7.35622 15.3959 7.50214 15.4981 7.61373L17.4056 9.72532C17.6014 9.93991 17.8909 10.0343 18.172 9.96566C18.453 9.89699 18.6829 9.67381 18.7595 9.39055C18.9128 8.80686 19.3982 8.42059 20.0879 8.32617C20.122 8.32617 20.1561 8.32617 20.1901 8.32617C20.8203 8.4721 21.2546 8.86695 21.3908 9.39914C21.5185 9.89699 21.3653 10.4206 20.9906 10.7639C20.8032 10.9356 20.5648 11.0558 20.3179 11.0987C20.0283 11.1502 19.7899 11.3562 19.6877 11.6309C19.594 11.9056 19.6537 12.206 19.8495 12.4292L19.8751 12.4635C19.8751 12.4635 19.9602 12.5408 20.0028 12.5665L21.8336 14.5408C21.9613 14.6781 22.1317 14.7639 22.319 14.7897C22.336 14.7897 22.3616 14.7897 22.3786 14.7897C22.4041 14.7897 22.4212 14.7897 22.4467 14.7897C22.5319 14.7811 22.617 14.7468 22.7022 14.7039C22.7448 14.6867 22.8044 14.6438 22.864 14.5923L24.8651 12.7554C24.8651 12.7554 24.9077 12.7039 24.9332 12.6781C25.078 12.4721 25.1206 12.2146 25.0525 11.9742C24.9843 11.7339 24.814 11.5536 24.5841 11.4678C24.3797 11.3906 24.2094 11.2704 24.0647 11.1073C23.8092 10.824 23.69 10.4635 23.7155 10.0858C23.7411 9.70815 23.9114 9.3648 24.2009 9.12446C24.2094 9.11587 24.2265 9.09871 24.235 9.09012C24.499 8.81544 24.8566 8.67811 25.2228 8.67811C25.5975 8.67811 25.9466 8.8412 26.202 9.11587C26.3468 9.27038 26.4575 9.45922 26.5171 9.66523C26.5852 9.90557 26.7556 10.0858 26.9855 10.1803C27.2154 10.2747 27.4794 10.2489 27.6923 10.1202C27.7178 10.103 27.7434 10.0858 27.7689 10.0601L29.7445 8.19742C29.8552 8.08583 29.9403 7.94849 29.9744 7.79398C29.9829 7.75107 29.9914 7.70815 29.9914 7.65665C29.9914 7.4678 29.9063 7.28755 29.7871 7.15021L27.9818 5.15021V5.18454ZM27.3602 9.11587C27.258 8.87553 27.1132 8.66094 26.9344 8.46351C26.4916 7.98283 25.8955 7.71673 25.2483 7.70815C24.6097 7.70815 24.0136 7.94849 23.5623 8.40343C23.0769 8.82403 22.7873 9.40772 22.7363 10.0429C22.6937 10.6953 22.9066 11.3133 23.3409 11.794C23.5197 11.9914 23.724 12.1545 23.954 12.2747L22.3956 13.7081L20.8288 12.0086C21.1353 11.9056 21.4164 11.7339 21.6548 11.5193C22.302 10.927 22.5659 10.0257 22.3445 9.17596C22.1146 8.28326 21.3908 7.61373 20.4115 7.38197C20.2668 7.34763 20.105 7.33905 19.9517 7.35622C18.9894 7.49356 18.2486 8.03433 17.908 8.83261L16.3837 7.15021L18.189 5.45064C18.2656 5.38197 18.3252 5.29613 18.3678 5.19313C18.4785 4.9957 18.5041 4.76394 18.4274 4.54935C18.3508 4.32617 18.1805 4.14592 17.9676 4.06008C17.7632 3.98283 17.5929 3.86265 17.4481 3.69956C16.9457 3.14162 16.9713 2.30042 17.4992 1.79398C18.0442 1.30471 18.8958 1.33905 19.3982 1.87982C19.543 2.03433 19.6537 2.22317 19.7047 2.42918C19.7729 2.66094 19.9347 2.8412 20.1475 2.93562C20.3604 3.02145 20.5904 3.02145 20.7947 2.92703C20.8969 2.8927 20.9821 2.83261 21.0587 2.76394L22.8895 1.08154L24.4308 2.74677C23.6133 3.02145 23.0173 3.71673 22.8044 4.6781C22.7703 4.82403 22.7618 4.98712 22.7873 5.14162C22.9406 6.14592 23.5452 6.92703 24.4053 7.22746C25.2313 7.51931 26.1424 7.32188 26.7811 6.72102C27.0195 6.49785 27.2069 6.23175 27.3346 5.93132L28.8844 7.64806L27.3431 9.09871L27.3602 9.11587Z" fill="#7A8F78"/>
<path d="M3.16766 27.2017C3.16766 27.6395 3.52531 28 3.96811 28L13.1393 27.9485C13.1393 27.9485 13.1904 27.9485 13.2074 27.9399C13.3011 27.9828 13.4118 28 13.5225 28L16.3666 27.9828C16.3666 27.9828 16.4348 27.9828 16.4603 27.9742C16.6987 27.9227 16.9116 27.7597 17.0138 27.5365C17.1245 27.3133 17.116 27.0558 17.0053 26.8326C16.8605 26.5494 16.6902 25.9657 17.1841 25.2446C17.2011 25.2189 17.2267 25.1931 17.2522 25.176C17.5673 24.9528 17.8909 24.8412 18.223 24.8412C18.9724 24.8412 19.5855 25.4506 19.5855 26.206C19.5855 26.4206 19.5429 26.6352 19.4407 26.824C19.33 27.0472 19.33 27.2961 19.4407 27.5193C19.5514 27.7425 19.7643 27.9056 20.0027 27.9571C20.0368 27.9571 20.0623 27.9657 20.1049 27.9657L22.8043 27.9485C23.0172 27.9485 23.2216 27.8627 23.3663 27.7081C23.5196 27.5536 23.5963 27.3562 23.5963 27.1416L23.5792 24.2918C23.5792 23.8455 23.2301 23.4936 22.7873 23.4936C22.634 23.4936 22.4807 23.5365 22.3445 23.6223C22.1316 23.7596 21.8761 23.8369 21.6122 23.8369C21.1097 23.8369 20.6414 23.5536 20.4115 23.1073C20.156 22.618 20.2156 22.0343 20.5733 21.4936C20.5903 21.4678 20.6159 21.4421 20.6414 21.4249C20.9565 21.2017 21.2886 21.0901 21.6122 21.0901C21.8676 21.0901 22.1146 21.1588 22.336 21.3047C22.6425 21.5021 23.0768 21.4506 23.3323 21.1931C23.477 21.0472 23.5622 20.8412 23.5622 20.6266L23.5452 17.7682C23.5452 17.3305 23.1875 16.9699 22.7447 16.9699L20.3178 16.9871C20.403 16.7382 20.4455 16.4721 20.4455 16.206C20.4455 14.9099 19.3811 13.8541 18.0953 13.8541C17.5758 13.8541 17.0564 14.0257 16.5795 14.3519C16.6562 14.2489 16.7243 14.1459 16.7754 14.0343C17.1926 13.2189 17.1075 12.2318 16.5284 11.3991C16.4433 11.2704 16.3326 11.1588 16.2048 11.073C15.481 10.5751 14.6295 10.4463 13.8971 10.7124L13.8801 8.26609C13.8801 7.82832 13.5225 7.4678 13.0797 7.4678L10.6528 7.48497C10.9167 6.72961 10.789 5.8884 10.2696 5.15021C10.1844 5.03003 10.0737 4.91845 9.94597 4.82403C9.4691 4.49785 8.94966 4.32617 8.43873 4.32617C7.80859 4.32617 7.22102 4.5751 6.7697 5.02145C6.3269 5.4678 6.07995 6.06866 6.08846 6.70385C6.08846 6.97853 6.13956 7.24463 6.23323 7.50214L3.7978 7.51931C3.58492 7.51931 3.38906 7.60514 3.23578 7.75965C3.0825 7.91416 3.00586 8.11158 3.00586 8.32617L3.02289 11.1931C3.02289 11.1931 3.02289 11.2618 3.03141 11.2875C3.10805 11.6566 3.43164 11.9227 3.80632 11.9227C3.93405 11.9227 4.05327 11.897 4.16397 11.8369C4.64083 11.588 5.21137 11.6481 5.73933 12.0172C5.76487 12.0343 5.79042 12.0601 5.80745 12.0858C6.17362 12.618 6.24174 13.2017 5.98628 13.6996C5.75636 14.1545 5.28801 14.4378 4.77708 14.4378C4.56419 14.4378 4.35982 14.3863 4.17248 14.2918C4.06178 14.2403 3.95108 14.206 3.83186 14.206C3.45718 14.206 3.12508 14.4807 3.05696 14.8584C3.05696 14.8927 3.04844 14.927 3.04844 14.9528L3.06547 17.6738C3.06547 17.7511 3.0825 17.8197 3.11656 17.8798C3.11656 17.8884 3.11656 17.9056 3.11656 17.9142L3.1336 20.2575C2.38423 19.9828 1.54972 20.1202 0.817389 20.6438C0.689656 20.7296 0.587471 20.8412 0.502316 20.9699C-0.0597046 21.8112 -0.144859 22.7983 0.28943 23.6051C0.698172 24.3863 1.49863 24.8669 2.37572 24.8584C2.64821 24.8584 2.91219 24.8069 3.16766 24.7124L3.18469 27.1674L3.16766 27.2017ZM16.852 17.6223C16.9968 17.382 17.0053 17.0901 16.8776 16.8498C16.7328 16.5665 16.5625 15.9828 17.0564 15.2618C17.0734 15.236 17.099 15.2103 17.1245 15.1931C17.4396 14.97 17.7632 14.8584 18.0953 14.8584C18.8446 14.8584 19.4492 15.4678 19.4577 16.2232C19.4577 16.4378 19.4067 16.6524 19.313 16.8412C19.1938 17.0901 19.2023 17.3734 19.347 17.6051C19.4918 17.8455 19.7473 17.9914 20.0368 17.9914L22.5574 17.9742L22.5744 20.309C21.7995 19.9571 20.8628 20.0687 20.0794 20.618C19.9516 20.7039 19.8409 20.8154 19.7558 20.9442C19.1938 21.7854 19.1086 22.7639 19.5344 23.5794C19.9431 24.3605 20.7351 24.8412 21.6207 24.8412C21.9613 24.8412 22.2849 24.7639 22.5914 24.6266L22.6085 26.9614L20.4455 26.9785C20.5307 26.7296 20.5733 26.4721 20.5733 26.206C20.5733 24.9099 19.5088 23.8541 18.223 23.8541C17.7036 23.8541 17.1671 24.0343 16.6902 24.3605C16.5625 24.4463 16.4518 24.5579 16.3666 24.6867C15.8642 25.4249 15.7365 26.2575 16.0005 27.0043L13.7013 27.0215L13.6843 24.4721C13.6843 24.0343 13.3266 23.6738 12.8923 23.6738C12.7646 23.6738 12.6369 23.7081 12.5262 23.7682C12.3303 23.8712 12.1259 23.9227 11.896 23.9227C11.3936 23.9227 10.9252 23.6395 10.6868 23.1931C10.4314 22.7039 10.491 22.1202 10.8486 21.588C10.8656 21.5622 10.8912 21.5365 10.9167 21.5193C11.4447 21.1502 12.0237 21.0815 12.5091 21.3305C12.8072 21.485 13.1904 21.4249 13.4288 21.1845C13.5821 21.03 13.6587 20.8326 13.6587 20.618L13.6417 18.0687L16.1623 18.0515C16.4433 18.0515 16.6902 17.9056 16.835 17.6652L16.852 17.6223ZM15.8812 17.0215H13.9397L13.9312 15.1931C14.1782 15.279 14.4336 15.3219 14.7061 15.3219C15.2596 15.3219 15.7876 15.1159 16.1963 14.7725C15.728 15.5021 15.6173 16.3004 15.8812 17.0215ZM4.80263 15.4506C5.67972 15.4506 6.47166 14.9528 6.87189 14.1717C7.28914 13.3562 7.20399 12.3691 6.62494 11.5365C6.53978 11.4077 6.42908 11.2961 6.30135 11.2103C5.57753 10.7124 4.7345 10.5837 4.00217 10.8412L3.98514 8.5236L6.51424 8.50643C6.79525 8.50643 7.05071 8.36051 7.19547 8.11158C7.34024 7.87124 7.34875 7.58798 7.22102 7.33905C7.11883 7.14162 7.06774 6.93561 7.06774 6.71244C7.06774 6.34334 7.20399 5.99999 7.46797 5.7339C7.72343 5.47639 8.07257 5.33046 8.43873 5.33046C8.76232 5.33046 9.07739 5.44205 9.39246 5.64806C9.41801 5.66523 9.44356 5.69098 9.46059 5.71673C9.82675 6.24892 9.89488 6.83261 9.64793 7.32188C9.5202 7.57081 9.53723 7.86265 9.68199 8.103C9.82675 8.34334 10.0822 8.48926 10.3632 8.48926L12.8923 8.4721L12.9094 11.0129C12.9094 11.4506 13.267 11.8112 13.7013 11.8112C13.8205 11.8112 13.9482 11.7854 14.0589 11.7253C14.5358 11.4764 15.1063 11.5365 15.6343 11.9056C15.6598 11.9227 15.6854 11.9485 15.7024 11.9742C16.0686 12.5064 16.1367 13.0901 15.8812 13.5794C15.6428 14.0343 15.183 14.3176 14.6721 14.3176C14.4592 14.3176 14.2548 14.2661 14.0675 14.1803C13.7694 14.0257 13.3862 14.0944 13.1563 14.3348C13.003 14.4893 12.9264 14.6953 12.9264 14.9099L12.9434 17.2275C12.8923 17.2704 12.8497 17.3219 12.8072 17.3734C12.7901 17.3991 12.7731 17.4249 12.7561 17.4506L10.3377 17.4678C10.227 17.4678 10.1248 17.4077 10.0737 17.3133C10.0226 17.2103 10.0226 17.0901 10.0822 16.9957C10.508 16.3176 10.4569 15.4764 9.94597 14.7296C9.89488 14.6524 9.82675 14.5923 9.75011 14.5408C9.34989 14.2661 8.93263 14.1287 8.51537 14.1287C8.02147 14.1287 7.55312 14.3262 7.19547 14.6781C6.84634 15.03 6.65048 15.5107 6.659 16.0086C6.659 16.3605 6.76118 16.7039 6.94852 17.0043C7.00813 17.0987 7.01665 17.2275 6.96556 17.3305C6.91446 17.4249 6.81228 17.485 6.70158 17.485L4.02772 17.5021V15.3219C4.25764 15.4077 4.5131 15.4506 4.77708 15.4506H4.80263ZM2.35017 23.897C1.84776 23.897 1.37941 23.6223 1.14098 23.1674C0.885512 22.6781 0.945121 22.0944 1.30277 21.5536C1.3198 21.5279 1.34535 21.5021 1.37089 21.485C1.89885 21.1159 2.4779 21.0472 2.96329 21.2961C3.21023 21.4249 3.49976 21.4077 3.73819 21.2618C3.97663 21.1159 4.12139 20.8584 4.11287 20.5751V18.4978L6.72712 18.4807C7.19547 18.4807 7.62125 18.2146 7.85116 17.8026C8.07257 17.382 8.05554 16.8755 7.80007 16.4721C7.71492 16.3348 7.66382 16.1717 7.66382 16.0086C7.66382 15.7768 7.74898 15.5536 7.91929 15.382C8.23436 15.0644 8.72826 15.0386 9.18809 15.339C9.34989 15.588 9.54574 16.0343 9.27325 16.4635C9.01778 16.8669 9.00075 17.3734 9.23067 17.794C9.45207 18.206 9.88636 18.4549 10.3547 18.4549L12.6624 18.4378V20.2833C11.9301 20.0172 11.0785 20.1545 10.3547 20.6695C10.2355 20.7554 10.1248 20.8669 10.0396 20.9957C9.47762 21.8369 9.39246 22.8154 9.81824 23.6309C10.227 24.4034 11.0189 24.8927 11.9045 24.8927C12.177 24.8927 12.441 24.8412 12.6965 24.7468L12.7135 26.8755C12.7135 26.8755 12.6709 26.9184 12.6624 26.9442L4.15545 26.9957L4.13842 24.4463C4.13842 24.1631 3.99366 23.9056 3.74671 23.7596C3.50828 23.6137 3.21875 23.6051 2.98032 23.7339C2.78446 23.8369 2.57157 23.8884 2.35869 23.8884L2.35017 23.897Z" fill="#7A8F78"/>
</g>
<defs>
<clipPath id="clip0_178_2501">
<rect width="30" height="28" fill="white"/>
</clipPath>
</defs>
</svg>
